PathFileType	4	(X/Y/Z)	T1_P1_Vision_Movement_3_0-659.trc
DataRate	CameraRate	NumFrames	NumMarkers	Units	OrigDataRate	OrigDataStartFrame	OrigNumFrames
60	60	4	27	m	60	0	659
Frame#	Time	RHip			RKnee			RAnkle			RBigToe			RSmallToe			RHeel			LHip			LKnee			LAnkle			LBigToe			LSmallToe			LHeel			Neck			Head			Nose			RShoulder			RElbow			RWrist			RThumb			RIndex			RPinky			LShoulder			LElbow			LWrist			LThumb			LIndex			LPinky		
		X1	Y1	Z1	X2	Y2	Z2	X3	Y3	Z3	X4	Y4	Z4	X5	Y5	Z5	X6	Y6	Z6	X7	Y7	Z7	X8	Y8	Z8	X9	Y9	Z9	X10	Y10	Z10	X11	Y11	Z11	X12	Y12	Z12	X13	Y13	Z13	X14	Y14	Z14	X15	Y15	Z15	X16	Y16	Z16	X17	Y17	Z17	X18	Y18	Z18	X19	Y19	Z19	X20	Y20	Z20	X21	Y21	Z21	X22	Y22	Z22	X23	Y23	Z23	X24	Y24	Z24	X25	Y25	Z25	X26	Y26	Z26	X27	Y27	Z27
1	0.016666666666666666	-112.50909966221916	3878.8843662068266	-626.1120283127183	262.59136258074284	4091.3241922040283	-652.9620669638216	606.2012166156445	4302.029942797344	-702.1257545099838	689.1691375817832	4204.045673495184	-650.9378923028058	679.8234895548774	4172.309815901499	-692.6224374319339	651.3799847581571	4351.486492652228	-707.3492998343097	-135.25267118709394	4043.831676536675	-500.56719088165596	214.64916683127487	4164.100221370816	-490.65033465564363	573.005669790826	4339.586543131755	-510.19467716053094	637.496553450668	4214.832082255492	-400.2730991510335	613.2106942124649	4251.737523911434	-375.0524856492217	625.6334386747525	4417.584325739996	-547.6033162664723	-699.6494710901492	3792.0444621910096	-584.5295010237098	-930.07422853908	3599.7936952620253	-471.25824664163576	-790.1865409609976	3639.902079117645	-448.5662166432663	-593.5510850443696	3756.212255463744	-712.3041127468753	-327.84449349101	3640.9987717532163	-691.5309069292227	-488.4483458675872	3597.585545489123	-530.1328714279721	-586.723899356888	3593.507756919827	-428.79814050819493	-590.5112041344179	3618.210883011037	-427.9251968151542	-558.4594519347575	3604.398398064963	-424.48273521744903	-641.7900181689489	3904.16546923171	-488.1967752704165	-410.176554650339	4117.837074341221	-453.58564814964467	-164.56598567286667	4120.852522384972	-371.6481939506278	-44.63092400685409	4108.968570755361	-373.5611519451885	-0.5121604086521414	4156.297858465404	-366.2599584040191	-26.78546072295522	4156.596230062361	-343.4809611458787
2	0.03333333333333333	-101.56512680295556	3883.220591794299	-627.7073858064452	248.95527806375895	4057.8527436765517	-640.5481352892062	599.3798656929357	4263.309113076862	-684.3983868294563	684.208372837211	4171.764662947189	-643.186848961366	674.4791284460727	4137.6265614461745	-683.3789840382992	645.4045536625033	4317.068564063512	-697.6009493549191	-129.04407083959603	4047.5751084988983	-502.0711356570041	214.88012134147408	4164.209418340439	-490.6867429977498	565.5576442016322	4335.536573752159	-504.9749136925703	643.9302956909803	4219.4305501951185	-402.48658339587996	623.8817727788987	4288.675089702368	-383.04618710969277	613.9404898739919	4378.597941961597	-533.9015114747999	-694.9878524540153	3792.8004521438643	-584.2031775375201	-926.0461649509432	3602.771998791956	-472.2381147473367	-790.1802277948636	3640.0960887332662	-448.602737887007	-593.5159686649126	3756.4288069858335	-712.4644150366995	-321.111520056015	3619.558169738883	-685.9534910132046	-476.2922209549119	3626.788829891862	-543.1815609091494	-582.2176742517789	3618.572693181972	-433.04664630922906	-582.4194053115417	3620.08984870786	-427.68795141722296	-557.0342060520564	3629.0708745179827	-429.3657423088673	-631.7446886391142	3908.266149943226	-488.878803754926	-410.16706737670967	4117.543112780529	-453.3881573926614	-163.62001252215327	4093.333689503361	-366.74340664675515	-44.925421811404945	4108.419368540314	-373.21425697059794	-6.928956194508495	4152.251299999491	-364.61820196567135	-27.266145356330018	4156.524267592289	-343.7945117342556
3	0.05	-101.51321594959933	3882.9110995239657	-627.3936522659977	248.98017887303732	4058.06620518033	-640.5151891889224	599.413261265312	4263.937064350986	-684.4702780597346	683.8279065971977	4170.73788291394	-642.7026332310733	674.4407576290142	4138.41841289972	-683.7100624371647	639.2774021089338	4313.351400239759	-697.3992098572419	-135.05338838953094	4043.7537260838426	-500.4610474205838	214.8358433752357	4164.026222278713	-490.448558613318	572.1354235103072	4339.447178975623	-504.3240128631218	644.1956829967319	4220.025515640751	-402.75573338798665	624.042323102757	4289.291866708291	-383.0403071063369	619.1402155391862	4378.748149995622	-533.4031086046652	-694.7591190987755	3792.9350206998583	-584.2609401714597	-925.9340343112898	3601.921266489659	-471.86070084933436	-784.9260894902783	3640.963062380308	-448.3771172189026	-588.7230662578539	3757.3377385746144	-712.5466794989067	-323.13004855123523	3644.6381573973686	-693.209743586845	-471.8667949245745	3630.211216088801	-539.0199838338265	-582.2755983393063	3619.3686110195003	-433.24037261405505	-577.2694824222472	3623.9517782664793	-428.6654613074447	-556.8355039836057	3629.8227279200605	-429.46665286592224	-631.83214016761	3908.2869008326134	-483.47450475502455	-404.5648542355036	4118.981059259075	-453.41503080083845	-164.848645802555	4121.338206369182	-371.52920834064133	-46.03412530701339	4109.08617148388	-367.144338833079	-6.775581699965507	4154.594334438105	-359.8430280954211	-33.85691133648851	4151.865552004555	-336.569092475556
4	0.06666666666666667	-101.48201184384816	3883.225452405387	-627.7180455365952	253.502396136462	4026.352299991849	-637.980994915119	617.4965517547591	4272.105919431162	-688.6756728253581	691.2607546382872	4176.587964517548	-645.4686640969982	681.0505398045161	4142.794702982016	-686.2324181636675	652.4208126962444	4321.0959635767995	-698.9993138108854	-129.55182117380895	4075.8757614229635	-508.13812557009055	226.02209307750755	4167.890214043735	-491.79602716774906	576.3064520243965	4339.557642288999	-498.2472209222015	644.6437253049937	4220.24993136588	-402.83916540063643	630.9184476327848	4294.330666872076	-385.3691216576922	625.3442274750938	4382.5249922060275	-529.2584779336745	-689.1165448453188	3794.2926522173957	-583.7145823108602	-916.5305390178593	3605.0183574563503	-471.98336308474353	-780.2440307780998	3644.1487223372674	-449.31656677788203	-584.7630191206422	3731.463931998075	-705.3245991173264	-317.93739173578257	3645.6641071780055	-693.1041348488628	-471.56695655666755	3630.3378770042314	-538.9693603853674	-581.4218274181029	3618.9086584219854	-432.9875560432868	-576.825748713023	3623.643093789179	-428.2589882634454	-547.32798534336	3634.2807271128263	-429.9559760559036	-631.1967378389727	3907.904365679472	-488.82259105360106	-404.5551338927259	4119.354428731763	-453.5430626318022	-158.9306708635076	4124.657477152163	-371.3520416837798	-39.2218597517335	4114.233464284553	-373.479680623645	4.456803239373667	4158.111455812153	-359.2200709184595	-21.716286561935757	4158.48920717774	-337.3346843526781
